<svg xmlns="http://www.w3.org/2000/svg"  viewBox="0 0 100 100" width="500px" height="500px"><path d="M0.003,75.002l-0.001-4H59	c5.52,0,10.001-4.48,10.001-10v-9H47.005l0.003,15.573l9.882,1.427H28.861l-0.144-0.013c-0.984-0.147-1.715-0.987-1.715-1.987v-32	c0-1,0.732-1.84,1.716-1.973l41.999-6c1.204-0.174,2.284,0.76,2.284,1.973v32c0,7.733-6.272,14-14,14H0.003z M67.567,74.508	c1.547-0.973,2.912-2.213,4.039-3.653c1.468,0.093,2.933,0.147,4.396,0.147h24v4h-24C73.172,75.002,70.355,74.815,67.567,74.508z M45.006,67.295l-0.003-15.293H33.002v-2h12.001l-0.001-13.24l2-0.293l0.003,13.533h21.997V31.309l-37.999,5.427v28.533	L45.006,67.295z"/></svg>