<svg xmlns="http://www.w3.org/2000/svg"  viewBox="0 0 48 48" width="480px" height="480px" baseProfile="basic"><path d="M42,31H6c-0.553,0-1,0.447-1,1v6c0,1.654,1.346,3,3,3h32c1.654,0,3-1.346,3-3v-6C43,31.447,42.553,31,42,31z"/><path fill="#fff" d="M40,38H8c-1.105,0-2-0.895-2-2V10h36v26C42,37.105,41.105,38,40,38z"/><path d="M40,39H8c-1.654,0-3-1.346-3-3V10c0-0.553,0.447-1,1-1h36c0.553,0,1,0.447,1,1v26C43,37.654,41.654,39,40,39z M7,11v25	c0,0.552,0.448,1,1,1h32c0.552,0,1-0.448,1-1V11H7z"/><path d="M24,34c-7.154,0-13.193-2.979-13.447-3.105c-0.494-0.247-0.693-0.847-0.447-1.341c0.247-0.494,0.85-0.693,1.341-0.448	C11.505,29.134,17.333,32,24,32c6.616,0,11.438-2.83,11.486-2.858c0.478-0.283,1.088-0.128,1.371,0.346s0.13,1.086-0.343,1.37	C36.301,30.985,31.194,34,24,34z"/><path d="M15,19c-0.553,0-1-0.447-1-1v-3c0-0.553,0.447-1,1-1s1,0.447,1,1v3C16,18.553,15.553,19,15,19z"/><path d="M31,19c-0.553,0-1-0.447-1-1v-3c0-0.553,0.447-1,1-1s1,0.447,1,1v3C32,18.553,31.553,19,31,19z"/><path d="M28,45c-0.396,0-0.772-0.237-0.929-0.629C23.896,36.435,24.96,29.762,25.659,27H20c-0.279,0-0.547-0.117-0.736-0.323	c-0.188-0.205-0.283-0.481-0.26-0.76c1.016-12.192,8.913-21.204,9.249-21.581c0.365-0.414,0.998-0.45,1.411-0.084	c0.412,0.367,0.45,0.999,0.084,1.412c-0.075,0.085-7.313,8.36-8.641,19.336H27c0.327,0,0.634,0.161,0.82,0.43	c0.188,0.269,0.23,0.613,0.116,0.92c-0.028,0.076-2.804,7.789,0.992,17.279c0.205,0.513-0.045,1.095-0.558,1.3	C28.25,44.978,28.124,45,28,45z"/></svg>